<svg width="127" height="127" viewBox="0 0 127 127" fill="none" xmlns="http://www.w3.org/2000/svg">
<g clip-path="url(#clip0_2048_18)">
<circle cx="63.5" cy="63.5" r="63.5" fill="white"/>
<mask id="mask0_2048_18" style="mask-type:luminance" maskUnits="userSpaceOnUse" x="3" y="3" width="121" height="121">
<path d="M123.934 3.01678H3.10181V123.849H123.934V3.01678Z" fill="white"/>
</mask>
<g mask="url(#mask0_2048_18)">
<mask id="mask1_2048_18" style="mask-type:luminance" maskUnits="userSpaceOnUse" x="22" y="23" width="83" height="81">
<path d="M104.146 23.1317H22.8965V103.656H104.146V23.1317Z" fill="white"/>
</mask>
<g mask="url(#mask1_2048_18)">
<path d="M54.0593 52.4423V44.7925C54.0593 44.1482 54.3011 43.6649 54.8645 43.3432L70.2451 34.4855C72.3387 33.2777 74.835 32.7143 77.4114 32.7143C87.0741 32.7143 93.1945 40.2032 93.1945 48.1748C93.1945 48.7383 93.1945 49.3826 93.1137 50.0269L77.1698 40.6859C76.2036 40.1225 75.237 40.1225 74.2708 40.6859L54.0593 52.4423ZM89.9731 82.2365V63.9572C89.9731 62.8296 89.4896 62.0243 88.5236 61.4608L68.3121 49.7043L74.9151 45.9194C75.4786 45.5977 75.9619 45.5977 76.5255 45.9194L91.9059 54.7771C96.3351 57.3542 99.3141 62.8296 99.3141 68.1438C99.3141 74.2635 95.6908 79.9005 89.9731 82.2359V82.2365ZM49.3084 66.1318L42.7054 62.2668C42.142 61.9451 41.9002 61.4616 41.9002 60.8174V43.1022C41.9002 34.4864 48.5032 27.9634 57.4416 27.9634C60.824 27.9634 63.9638 29.091 66.6218 31.1041L50.7585 40.2841C49.7926 40.8475 49.3092 41.6527 49.3092 42.7805V66.1325L49.3084 66.1318ZM63.5211 74.345L54.0593 69.0306V57.7576L63.5211 52.4432L72.9823 57.7576V69.0306L63.5211 74.345ZM69.6006 98.8248C66.2183 98.8248 63.0786 97.6972 60.4206 95.6843L76.2837 86.5041C77.2498 85.9407 77.7331 85.1355 77.7331 84.0077V60.6557L84.417 64.5207C84.9804 64.8424 85.2222 65.3257 85.2222 65.9702V83.6854C85.2222 92.3012 78.5384 98.8241 69.6006 98.8241V98.8248ZM50.5162 80.8679L35.1356 72.0104C30.7064 69.4332 27.7274 63.958 27.7274 58.6436C27.7274 52.4432 31.4316 46.8871 37.1485 44.5517V62.9111C37.1485 64.0387 37.632 64.8439 38.598 65.4075L58.7294 77.0831L52.1265 80.8679C51.5631 81.1897 51.0796 81.1897 50.5162 80.8679ZM49.6309 94.0739C40.5316 94.0739 33.8479 87.2293 33.8479 78.7742C33.8479 78.1299 33.9286 77.4857 34.0087 76.8414L49.8719 86.0214C50.8379 86.585 51.8047 86.585 52.7707 86.0214L72.9823 74.3459V81.9957C72.9823 82.64 72.7406 83.1233 72.177 83.445L56.7966 92.3027C54.7029 93.5105 52.2065 94.0739 49.6301 94.0739H49.6309ZM69.6006 103.656C79.3442 103.656 87.4767 96.731 89.3295 87.551C98.3481 85.2156 104.146 76.7605 104.146 68.1447C104.146 62.5077 101.73 57.0325 97.382 53.0866C97.7846 51.3955 98.0262 49.7043 98.0262 48.014C98.0262 36.4992 88.6852 27.8825 77.8948 27.8825C75.7211 27.8825 73.6274 28.2043 71.5336 28.9294C67.9095 25.3862 62.9169 23.1317 57.4416 23.1317C47.6981 23.1317 39.5656 30.0563 37.7129 39.2364C28.6942 41.5718 22.8965 50.0269 22.8965 58.6427C22.8965 64.2797 25.312 69.7549 29.6604 73.7008C29.2578 75.3919 29.0161 77.0831 29.0161 78.7735C29.0161 90.2883 38.3571 98.9048 49.1474 98.9048C51.3212 98.9048 53.415 98.5831 55.5088 97.858C59.132 101.401 64.1246 103.656 69.6006 103.656Z" fill="black"/>
</g>
</g>
</g>
<defs>
<clipPath id="clip0_2048_18">
<rect width="127" height="127" fill="white"/>
</clipPath>
</defs>
</svg>
